<svg xmlns="http://www.w3.org/2000/svg" xmlns:xlink="http://www.w3.org/1999/xlink" width="136.116" height="130.885" viewBox="0 0 136.116 130.885">
  <defs>
    <clipPath id="clip-path">
      <rect id="사각형_697" data-name="사각형 697" width="136.116" height="130.885" transform="translate(2585.963 1311.67)" fill="none"/>
    </clipPath>
  </defs>
  <g id="flame2" transform="translate(-2585.963 -1311.67)" opacity="0.43">
    <g id="그룹_606" data-name="그룹 606">
      <g id="그룹_605" data-name="그룹 605" clip-path="url(#clip-path)">
        <g id="그룹_971" data-name="그룹 971">
          <path id="패스_1181" data-name="패스 1181" d="M2644.093,1382.057a69.719,69.719,0,0,0-15.988-38.273,18.319,18.319,0,0,1-2.478-4.435,3.425,3.425,0,0,1,.549-3.45c.821-1.113,1.714-1.352,2.757-.439a19.817,19.817,0,0,1,3.216,3.469c4.482,6.406,7.321,13.583,9.453,21.063a67.133,67.133,0,0,1,2.741,20.326c-.01.418-.038.836-.075,1.251a2.612,2.612,0,0,1-.175.489" fill="#e3f3f5"/>
          <path id="패스_1182" data-name="패스 1182" d="M2624.946,1380.71c-2.949-1.573-5.826-3.307-8.863-4.687a27.309,27.309,0,0,0-18.246-1.906c-.281.068-.565.139-.851.19-.891.16-1.821.509-2.379-.643a2.275,2.275,0,0,1,.654-3.124,10.076,10.076,0,0,1,4.064-1.315,28.438,28.438,0,0,1,17.877,4.737c1.718,1.163,3.29,2.545,4.906,3.855,1.068.865,2.1,1.776,3.145,2.668l-.309.226" fill="#e3f3f5"/>
          <path id="패스_1183" data-name="패스 1183" d="M2669.361,1348.179c7.179-8.119,15.923-12.562,26.972-11.415a8.268,8.268,0,0,1,2.913,1,2.324,2.324,0,0,1,1.2,2.66c-.259,1.35-.869,1.751-2.213,1.474-11.452-2.348-19.175-.644-28.874,6.286" fill="#e3f3f5"/>
          <path id="패스_1184" data-name="패스 1184" d="M2619.4,1396.451a37.68,37.68,0,0,0-18.825.342,26.449,26.449,0,0,0-9.592,5.208c-1.613,1.315-2.108,1.371-2.985.471a2.538,2.538,0,0,1-.109-3.59c.041-.044.085-.087.129-.128a13.223,13.223,0,0,1,3.369-2.526c9.156-4.632,18.368-4.152,27.574-.1a2.768,2.768,0,0,1,.44.329" fill="#e3f3f5"/>
          <path id="패스_1185" data-name="패스 1185" d="M2682.926,1379.283c10.449-.862,19.556,1.81,26.808,9.649a8.757,8.757,0,0,1,1.835,2.938,3.639,3.639,0,0,1-.152,2.6c-.827,1.6-2.414,1.541-3.383-.04a27.073,27.073,0,0,0-7.547-8.411,36.959,36.959,0,0,0-16.213-6.349c-.369-.052-.738-.107-1.1-.174-.064-.013-.114-.1-.243-.218" fill="#e3f3f5"/>
          <path id="패스_1186" data-name="패스 1186" d="M2616.536,1354.862a38.9,38.9,0,0,0-12.431-6.433,26.5,26.5,0,0,0-14.744-.488c-.241.061-.486.107-.73.158-.9.188-1.817.5-2.363-.655a2.373,2.373,0,0,1,.685-3.135,9.1,9.1,0,0,1,3.584-1.233,29.024,29.024,0,0,1,21.853,7.309c1.535,1.321,2.935,2.8,4.4,4.208l-.252.27" fill="#e3f3f5"/>
          <path id="패스_1187" data-name="패스 1187" d="M2649.55,1403.281a28.7,28.7,0,0,1,20.418,1.6,37.822,37.822,0,0,1,15.279,12.741,23.874,23.874,0,0,1,1.941,3.908,1.369,1.369,0,0,1-.383,1.9c-.038.025-.077.048-.117.07-.923.492-1.273-.325-1.665-.856-2.18-2.947-4.166-6.056-6.52-8.853-7.341-8.723-16.97-11.53-27.97-10.523-.247.021-.5.051-.744.064a.979.979,0,0,1-.24-.043" fill="#e3f3f5"/>
          <path id="패스_1188" data-name="패스 1188" d="M2639.782,1403.242a41.713,41.713,0,0,0-11.94.467c-7.876,1.5-13.952,5.823-18.765,12.093-1.571,2.049-2.933,4.256-4.441,6.355-.469.651-.794,1.853-1.906,1.355-1.28-.574-.743-1.733-.361-2.622a16.747,16.747,0,0,1,1.825-3.41c5.507-7.4,12.518-12.645,21.595-14.72a28.05,28.05,0,0,1,13.994.482" fill="#e3f3f5"/>
          <path id="패스_1189" data-name="패스 1189" d="M2649.134,1368.487c.45-2.555,1.015-5.1,1.33-7.671a69.693,69.693,0,0,0-2.661-28.419,14.291,14.291,0,0,1-.5-3.689,1.657,1.657,0,0,1,.867-1.323,1.607,1.607,0,0,1,1.342.79,18.786,18.786,0,0,1,1.5,4.347,81.969,81.969,0,0,1,.1,28.731c-.464,2.453-1.183,4.858-1.786,7.284l-.186-.05" fill="#e3f3f5"/>
          <path id="패스_1190" data-name="패스 1190" d="M2672.094,1366.127c1.707-1.147,3.367-2.373,5.128-3.426a80.911,80.911,0,0,1,28.418-10.006,11.839,11.839,0,0,1,3.578.148c.431.062,1.127.627,1.109.929a1.741,1.741,0,0,1-.9,1.3,11.81,11.81,0,0,1-3.361.767,68.944,68.944,0,0,0-29.268,7.827c-1.554.827-3.031,1.8-4.545,2.7l-.154-.24" fill="#e3f3f5"/>
          <path id="패스_1191" data-name="패스 1191" d="M2645.87,1404.951a14.768,14.768,0,0,1,7.428,7.286,34.833,34.833,0,0,1,3.877,12.881,5.12,5.12,0,0,1-.093,1.987c-.169.514-.671,1.217-1.092,1.266a1.983,1.983,0,0,1-1.628-.761,9.35,9.35,0,0,1-.937-2.826c-.62-3.072-1.084-6.178-1.768-9.235a19.349,19.349,0,0,0-5.786-10.6" fill="#e3f3f5"/>
          <path id="패스_1192" data-name="패스 1192" d="M2641.94,1404.936a31.148,31.148,0,0,0-9.519,6.109,32.018,32.018,0,0,0-4.615,5.716,9.721,9.721,0,0,0-.616,9.382c.321.732.78,1.723-.052,2.119-.466.222-1.574-.342-2.065-.865a5.075,5.075,0,0,1-.973-4.848,23.251,23.251,0,0,1,9.725-13.956,22.634,22.634,0,0,1,8.114-3.657" fill="#e3f3f5"/>
          <path id="패스_1193" data-name="패스 1193" d="M2619.506,1338.643c-1.178-1.627-2.193-3.191-3.37-4.621a15.143,15.143,0,0,0-8.5-5.34c-.627-.142-1.409-.207-1.238-1.2a1.428,1.428,0,0,1,1.594-1.237l.023,0a2.824,2.824,0,0,1,.972.172c5.662,2.136,8.892,6.386,10.524,12.222" fill="#e3f3f5"/>
          <path id="패스_1194" data-name="패스 1194" d="M2646.236,1398.722a34.141,34.141,0,0,1,4.947-19.779,75.9,75.9,0,0,1,19.089-21.159,38.606,38.606,0,0,1,6.17-3.475c.973-.476,2.366-.87,3.031.356.635,1.173-.6,1.908-1.374,2.5-3.612,2.753-7.319,5.377-10.92,8.142a75.015,75.015,0,0,0-13.149,12.8,34.5,34.5,0,0,0-7.794,20.622" fill="#4da88d"/>
          <path id="패스_1195" data-name="패스 1195" d="M2644.04,1400.016a36.205,36.205,0,0,0-5.44-15.352,51.1,51.1,0,0,0-9.612-10.484c-5.38-4.726-11.43-8.488-17.505-12.213a21.618,21.618,0,0,1-3.1-2.306,1.707,1.707,0,0,1-.485-1.488,1.68,1.68,0,0,1,1.4-.751,13.155,13.155,0,0,1,3.6.868,43.447,43.447,0,0,1,13.042,9.13,133.281,133.281,0,0,1,10.688,11.563c4.888,6.068,7.1,13.252,7.411,21.032" fill="#4da88d"/>
          <path id="패스_1196" data-name="패스 1196" d="M2648.12,1401.3a32,32,0,0,1,19.074-15.085,55.146,55.146,0,0,1,23.809-1.943,36.912,36.912,0,0,1,4.7,1.2,3.928,3.928,0,0,1,1.654.836,10.129,10.129,0,0,1,1.221,1.872,5.523,5.523,0,0,1-1.98.58c-3.47-.389-6.919-.969-10.388-1.365a55.478,55.478,0,0,0-17.648.449,32.678,32.678,0,0,0-19.156,12.1c-.34.421-.677.846-1.018,1.266-.017.021-.058.022-.27.093" fill="#4da88d"/>
          <path id="패스_1197" data-name="패스 1197" d="M2640.915,1400.71c-2.261-2.154-4.679-4.819-7.455-7.027-5.706-4.54-12.394-6.4-19.606-6.681a96.356,96.356,0,0,0-19.344,1.592,13.847,13.847,0,0,1-2.728.174c-1.071-.04-1.439-.787-.743-1.6a6.084,6.084,0,0,1,1.977-1.454,22.814,22.814,0,0,1,8.473-1.86,54.5,54.5,0,0,1,25.012,3.96,30.754,30.754,0,0,1,14.412,12.891" fill="#4da88d"/>
          <path id="패스_1198" data-name="패스 1198" d="M2607.289,1400.9a38.682,38.682,0,0,0-10.046,14.077,26.62,26.62,0,0,0-1.915,12.037c.118,1.974-.116,2.489-1.244,2.7a2.415,2.415,0,0,1-2.97-1.685,2.518,2.518,0,0,1-.073-.376,16.92,16.92,0,0,1,.071-5.33c1.845-9.627,7.495-16.486,15.732-21.381.061-.037.153-.015.442-.035" fill="#4da88d"/>
          <path id="패스_1199" data-name="패스 1199" d="M2623.176,1410.274a38.75,38.75,0,0,0-4.791,14.319,26.92,26.92,0,0,0,1.719,14.034c.142.349.287.7.41,1.052.27.789.68,1.616-.244,2.259a2.239,2.239,0,0,1-2.891.147,6.434,6.434,0,0,1-1.776-2.485,24.537,24.537,0,0,1-1.036-10.787c.63-7,3.69-12.954,8.154-18.246a2.548,2.548,0,0,1,.455-.292" fill="#4da88d"/>
          <path id="패스_1200" data-name="패스 1200" d="M2679.119,1398.356c7.885.953,15.059,3.646,20.58,9.788a40.056,40.056,0,0,1,4.118,5.637,8.287,8.287,0,0,1,.971,3.309,2.284,2.284,0,0,1-1.716,2.468,1.473,1.473,0,0,1-2-.584,1.445,1.445,0,0,1-.124-.3c-.486-1.2-.944-2.411-1.486-3.584-2.842-6.139-7.661-10.329-13.424-13.5-2.242-1.235-4.644-2.177-6.919-3.228" fill="#4da88d"/>
          <path id="패스_1201" data-name="패스 1201" d="M2672.081,1374.564c6.816-5.333,14.265-8.379,22.952-7.5a32.861,32.861,0,0,1,5.727,1.131,7.37,7.37,0,0,1,2.6,1.627,2.2,2.2,0,0,1,.4,2.771,1.513,1.513,0,0,1-2.219.872,60.6,60.6,0,0,0-6.341-2.237c-5.088-1.364-10.164-.8-15.149.585-2.655.739-5.225,1.794-7.969,2.754" fill="#4da88d"/>
          <path id="패스_1202" data-name="패스 1202" d="M2639.391,1339.014a40.085,40.085,0,0,0-7.585-15.783,26.53,26.53,0,0,0-9.362-7.331c-1.819-.891-2.109-1.366-1.679-2.539a2.58,2.58,0,0,1,3.29-1.576l.082.031a7.944,7.944,0,0,1,2.367,1.072c8.963,6.383,12.74,15.371,12.886,26.126" fill="#4da88d"/>
          <path id="패스_1203" data-name="패스 1203" d="M2664.493,1411.092a30.122,30.122,0,0,1,8.1,8.983,28.553,28.553,0,0,1,4.019,18.019,7.162,7.162,0,0,1-.913,2.562,2.3,2.3,0,0,1-2.567,1.128c-1.218-.187-1.665-.747-1.48-1.986.209-1.4.577-2.787.741-4.195,1.04-9.028-2.237-16.719-7.355-23.829-.17-.235-.362-.456-.545-.683" fill="#4da88d"/>
          <path id="패스_1204" data-name="패스 1204" d="M2659.792,1351.083c.937-2.783,1.986-5.418,2.708-8.14,1.879-7.1,1.7-14.077-1.575-20.805-.439-.9-.942-1.864.263-2.642a2.376,2.376,0,0,1,3.277.351,10.117,10.117,0,0,1,1.808,3.509c2.543,10.3-.079,19.419-6.479,27.727" fill="#4da88d"/>
          <path id="패스_1205" data-name="패스 1205" d="M2633.93,1367.861a66.817,66.817,0,0,0-18.045-21.22c-2.086-1.65-4.367-3.051-6.521-4.62a14.447,14.447,0,0,1-2.5-2.219c-.33-.387-.242-1.137-.343-1.721.583-.088,1.271-.419,1.73-.219a15.225,15.225,0,0,1,3.552,2.025,81.6,81.6,0,0,1,16.042,17.107c2.053,3.028,3.713,6.328,5.532,9.513a11.153,11.153,0,0,1,.556,1.356" fill="#4da88d"/>
          <path id="패스_1206" data-name="패스 1206" d="M2638.879,1414.712c-.6,1.873-1.3,3.744-1.785,5.669a15.086,15.086,0,0,0,.736,9.838c.235.552.62,1.216-.186,1.643a1.32,1.32,0,0,1-1.837-.336,1.5,1.5,0,0,1-.1-.181,8.413,8.413,0,0,1-.9-2.572,17.248,17.248,0,0,1,4.079-14.061" fill="#4da88d"/>
          <path id="패스_1207" data-name="패스 1207" d="M2602.98,1363.53a24.207,24.207,0,0,0-8.643-.007,15.2,15.2,0,0,0-6.182,2.8c-.534.394-1.118,1.064-1.8.2a1.363,1.363,0,0,1,.34-2.17,25.033,25.033,0,0,1,5.426-2.335,15.737,15.737,0,0,1,10.865,1.5" fill="#e3f3f5"/>
          <path id="패스_1208" data-name="패스 1208" d="M2705.256,1362.024c5.6-1.529,10.6-.964,15.141,2.271a5.493,5.493,0,0,1,1.649,2.093c.156.33-.272,1.062-.614,1.452-.131.147-.913-.012-1.145-.265-3.916-4.285-8.93-5.559-14.468-5.444a4.694,4.694,0,0,1-.564-.107" fill="#e3f3f5"/>
        </g>
      </g>
    </g>
  </g>
</svg>
