<svg xmlns="http://www.w3.org/2000/svg" xmlns:xlink="http://www.w3.org/1999/xlink" width="331.797" height="240.089" viewBox="0 0 331.797 240.089">
  <defs>
    <clipPath id="clip-path">
      <rect id="사각형_695" data-name="사각형 695" width="331.797" height="240.089" transform="translate(2062.08 1346.528)" fill="none"/>
    </clipPath>
  </defs>
  <g id="flame1" transform="translate(-2062.08 -1346.528)">
    <g id="그룹_602" data-name="그룹 602">
      <g id="그룹_601" data-name="그룹 601" clip-path="url(#clip-path)">
        <g id="그룹_967" data-name="그룹 967">
          <path id="패스_1073" data-name="패스 1073" d="M2229.978,1495.63c1-4.8,1.843-9.634,3.015-14.388,6.306-25.574,17.181-49.2,30.777-71.574,7.7-12.668,15.837-25.073,24.038-37.422,2.375-3.576,5.552-6.643,8.554-9.757,1.269-1.314,2.948-2.508,4.978-.944s2.043,3.584.883,5.479c-2.646,4.325-5.295,8.676-8.322,12.728-7.991,10.7-16.458,21.037-24.237,31.883a252.4,252.4,0,0,0-32.889,63.841c-2.333,6.638-4.289,13.413-6.419,20.126l-.378.028" fill="#e25648"/>
          <path id="패스_1074" data-name="패스 1074" d="M2224.678,1518.547c-2.007-5.877-3.854-11.816-6.049-17.622a268.6,268.6,0,0,0-47.4-79.915c-6.849-8.029-13.277-16.423-19.781-24.74a26.623,26.623,0,0,1-3.012-5.59,2.893,2.893,0,0,1,1.192-3.914c.058-.031.117-.06.177-.086,1.059-.487,2.928-.625,3.72,0a38.365,38.365,0,0,1,7.431,7.046c8.016,10.967,15.956,22,23.547,33.27,11.741,17.424,21.977,35.712,29.735,55.318a187.587,187.587,0,0,1,10.248,33.849c.15.78.261,1.568.389,2.353l-.2.031" fill="#e25648"/>
          <path id="패스_1075" data-name="패스 1075" d="M2201.558,1502.85c-.573-.367-1.164-.709-1.717-1.1a256.345,256.345,0,0,0-81.6-38.734c-11.224-3.109-22.7-5.3-34.022-8.044-4.983-1.208-9.9-2.709-14.815-4.179a18.3,18.3,0,0,1-3.75-1.769,3.6,3.6,0,0,1-1.771-4.2,2.924,2.924,0,0,1,3.295-2.5l.127.021a80.924,80.924,0,0,1,12.062,1.67c18.135,4.542,35.662,10.984,53.088,17.7a230.794,230.794,0,0,1,41.64,20.533c8.921,5.706,17.282,12.3,25.881,18.517a23.4,23.4,0,0,1,1.886,1.689l-.3.393" fill="#f2b76e"/>
          <path id="패스_1076" data-name="패스 1076" d="M2222.061,1517.926c-1.415-2.625-2.776-5.28-4.254-7.869-9.88-17.309-22.5-32-40.078-41.793-10.568-5.887-21.773-9.612-34.086-8.806-1.135.074-2.261.278-3.4.385-4.375.411-6.669-1.508-6.987-5.83-.278-3.767,2.206-6.55,6.156-6.715a60.713,60.713,0,0,1,26.025,4.636c15.1,6.243,26.561,16.987,36.367,29.764a167.654,167.654,0,0,1,20.059,34.552c.217.491.358,1.016.534,1.527l-.342.151" fill="#e25648"/>
          <path id="패스_1077" data-name="패스 1077" d="M2228.417,1523.908c-1.331-5.983-2.89-11.924-3.952-17.956a156.977,156.977,0,0,1-.569-50.5,142.9,142.9,0,0,1,12-40.16,18.883,18.883,0,0,1,5.115-6.405c2.893-2.334,6.093-.782,6.13,2.964a23.627,23.627,0,0,1-1.566,8.352,65.071,65.071,0,0,1-4.845,9.648c-11.931,20.539-15.833,42.9-14.661,66.322.463,9.236,1.7,18.433,2.58,27.65l-.232.084" fill="#e25648"/>
          <path id="패스_1078" data-name="패스 1078" d="M2217.626,1522.476c-2.767-1.99-5.486-4.051-8.308-5.956-17.792-12.02-37.292-18.982-58.792-19.961-7.686-.349-15.145.557-22.093,4.184-.65.339-1.332.621-2.01.9-4.18,1.734-6.765-.258-6.1-4.808a6.941,6.941,0,0,1,4.819-5.95c12.64-4.455,25.456-4.585,38.3-1.277,21.3,5.485,38.685,17.7,54.18,32.863" fill="#e25648"/>
          <path id="패스_1079" data-name="패스 1079" d="M2155.967,1422.932c-5.112-1.289-10.382-3.087-15.8-3.862a176.94,176.94,0,0,0-18.506-1.157c-6.268-.233-12.544-.239-18.816-.361a16.263,16.263,0,0,1-2.434-.2c-3.6-.616-5.684-2.671-5.763-5.642-.089-3.329,2.292-6.633,5.692-6.952a60.959,60.959,0,0,1,11.2.054,81.871,81.871,0,0,1,43.5,17.253,10.348,10.348,0,0,1,.927.863" fill="#f2b76e"/>
          <path id="패스_1080" data-name="패스 1080" d="M2208.975,1432.54c-.406-5.836-1.147-11.67-1.15-17.507a81.353,81.353,0,0,1,10.008-39.146,7.745,7.745,0,0,1,5.515-4.419c4.759-.9,8.411,2.767,7.054,7.446a57.471,57.471,0,0,1-3.813,9.035c-2.229,4.562-4.643,9.031-6.975,13.543-5.039,9.745-9.052,19.818-9.666,30.978l-.973.069" fill="#f2b76e"/>
          <path id="패스_1081" data-name="패스 1081" d="M2272.459,1511.171c5.078-2.331,10.047-4.953,15.259-6.93a64.248,64.248,0,0,1,31.061-3.5,10.644,10.644,0,0,1,1.45.224,6.046,6.046,0,0,1,4.383,6.09c-.189,2.566-2.154,4.441-5.257,4.439-3.661,0-7.333-.3-10.984-.641-9.174-.858-18.333-2.226-27.556-.7-2.7.446-5.363,1.133-8.042,1.708l-.315-.694" fill="#f2b76e"/>
          <path id="패스_1082" data-name="패스 1082" d="M2113.617,1481.746c-11.878-1.383-22.945,2.08-34.033,5.508-3.5,1.081-7.063,1.992-10.638,2.792-3.507.785-6-.526-6.678-3.231a5.926,5.926,0,0,1,4.064-7.158,66.5,66.5,0,0,1,37.129-1.646c3.454.815,6.825,1.987,10.233,3-.026.246-.052.493-.078.739" fill="#f2b76e"/>
          <path id="패스_1083" data-name="패스 1083" d="M2215.422,1531.948c-7.149,2.479-14.958,4.831-22.49,7.877a78.26,78.26,0,0,0-34.457,26.65,46.467,46.467,0,0,1-5.405,6,10.045,10.045,0,0,1-3.759,2.189c-2.568.824-4.364-.855-3.525-3.436A14.48,14.48,0,0,1,2148.8,1566c16.448-17.757,36.7-28.567,60.325-33.081,2.29-.437,4.612-.709,6.3-.964" fill="#f2b76e"/>
          <path id="패스_1084" data-name="패스 1084" d="M2235.051,1525.366c-.677-23.7,5.254-45.487,18.437-65.153a66.971,66.971,0,0,1,5.434-7.256,12.588,12.588,0,0,1,4.484-3.235c2.346-.956,4.04.439,3.517,2.926a14.71,14.71,0,0,1-2.539,5.731c-2.322,3.046-5.05,5.778-7.609,8.64-11.229,12.564-16.867,27.676-19.7,44.033-.823,4.746-1.356,9.541-2.022,14.314" fill="#e25648"/>
          <path id="패스_1085" data-name="패스 1085" d="M2243.792,1531.521c6.569-1.758,13.069-3.869,19.723-5.207a104.278,104.278,0,0,1,54.042,3.271,20.988,20.988,0,0,1,5.875,3.321,3.288,3.288,0,0,1,.932,2.991,3.52,3.52,0,0,1-2.75,1.848,37.758,37.758,0,0,1-9.659-2.083c-7.628-3.177-15.266-6.143-23.508-7.269-14.044-1.918-27.788-.147-41.41,3.271-1,.251-2.006.5-3.009.743l-.23-.882" fill="#f2b76e"/>
          <path id="패스_1086" data-name="패스 1086" d="M2213.1,1528.335c-1.39-.614-2.79-1.206-4.17-1.844-15.731-7.272-31.949-9.434-48.848-4.827-4.323,1.178-8.7,2.161-13.047,3.243-3.013.75-4.368-.492-3.728-3.61.706-3.439,3.235-4.886,6.387-5.618a75.714,75.714,0,0,1,35.863.622,99.29,99.29,0,0,1,25.754,10.5c.665.384,1.3.821,1.948,1.234Z" fill="#e25648"/>
          <path id="패스_1087" data-name="패스 1087" d="M2142.351,1538.138c-7.409,3.668-14.9,7.056-22.088,11a197.818,197.818,0,0,0-37,26.819c-.486.438-.967.879-1.458,1.312-1.5,1.319-3.077,1.985-4.706.253a3.569,3.569,0,0,1,.583-5.4c3.57-2.856,7.157-5.7,10.868-8.368,14.674-10.538,30.253-19.3,47.761-24.177,2-.557,4.043-.968,6.044-1.441" fill="#f2b76e"/>
          <path id="패스_1088" data-name="패스 1088" d="M2194.79,1420.492c-1.786-6.206-3.353-12.487-5.4-18.6a204.558,204.558,0,0,0-22.95-46.608c-.4-.618-.843-1.213-1.2-1.853-.9-1.6-1.11-3.2.656-4.3a3.464,3.464,0,0,1,4.835.681,5.159,5.159,0,0,1,.53.826c10.128,17.464,18.226,35.751,21.973,55.749.873,4.657,1.266,9.406,1.88,14.113h-.323" fill="#f2b76e"/>
          <path id="패스_1089" data-name="패스 1089" d="M2298.693,1484.945c11.2-2.261,22.332-2.055,33.469-.668a199.016,199.016,0,0,1,39.012,9.074c1.8.608,3.042,1.519,3.107,3.576.085,2.687-1.7,3.928-4.428,2.967-5.538-1.953-11-4.155-16.593-5.911-17.525-5.5-35.391-9.057-53.847-8.941a4.961,4.961,0,0,1-.719-.1" fill="#f2b76e"/>
          <path id="패스_1090" data-name="패스 1090" d="M2296.228,1404.284c2.46-2.045,4.837-4.2,7.392-6.117,16.035-12.026,34.134-19.7,53.155-25.413,1.094-.328,2.186-.661,3.287-.962,2.935-.8,4.843.024,5.5,2.365.584,2.087-.544,3.285-3.755,3.992-14.372,3.169-28.416,7.441-41.717,13.783-7.64,3.643-14.908,8.074-22.343,12.153-.393.215-.778.447-1.166.67l-.352-.471" fill="#f2b76e"/>
          <path id="패스_1091" data-name="패스 1091" d="M2283.339,1446.612a100.874,100.874,0,0,1,18.948-14.259c14.38-8.627,29.865-14.591,45.931-19.126,1.687-.476,3.233-.423,4.43,1.089,1.7,2.144.831,4.4-2.026,5.135-5.206,1.344-10.472,2.48-15.629,3.991-17.928,5.251-35.041,12.365-50.589,22.951a5.4,5.4,0,0,1-1.066.22" fill="#f2b76e"/>
          <path id="패스_1092" data-name="패스 1092" d="M2253.848,1387.228a58.4,58.4,0,0,1,9.341-30.364,78.048,78.048,0,0,1,6.414-8.363c.792-.936,2.133-2,3.193-1.97a8.842,8.842,0,0,1,5.01,1.621c1.547,1.239,1.185,3.343.163,4.977a46.494,46.494,0,0,1-3.5,4.732q-2.722,3.324-5.6,6.52c-6.122,6.847-11.864,13.947-15.021,22.847" fill="#f2b76e"/>
          <path id="패스_1093" data-name="패스 1093" d="M2263.857,1472.558c10.634-10.671,23.352-16.8,38.3-18.028a5.245,5.245,0,0,1,5.92,4.469l.015.117c.252,2.536-1.248,4.314-4.681,4.88-4.891.805-9.817,1.428-14.746,1.958-8.606.928-17.009,2.544-24.808,6.6" fill="#e25648"/>
          <path id="패스_1094" data-name="패스 1094" d="M2329.948,1463.891c7.969-2.292,15.993-2.707,24.07-2.5a165.118,165.118,0,0,1,36.875,5.637,8.123,8.123,0,0,1,.934.288,2.957,2.957,0,0,1,1.963,3.693c-.03.1-.065.194-.1.288-.506,1.725-1.949,1.816-3.4,1.406-4.231-1.194-8.418-2.56-12.676-3.647-15-3.829-30.207-5.922-45.724-5.172-.644.031-1.291,0-1.937,0" fill="#f2b76e"/>
          <path id="패스_1095" data-name="패스 1095" d="M2242.838,1538.447a66.454,66.454,0,0,1,33.1,7.021,140.449,140.449,0,0,1,13.869,8.707,9.365,9.365,0,0,1,2.619,3.153,2.43,2.43,0,0,1-.1,2.227,2.272,2.272,0,0,1-2.137.505,52.122,52.122,0,0,1-5.913-3.772c-4.73-3.461-9.124-7.483-14.154-10.409-7.572-4.407-16.117-6.115-24.763-7.12-.842-.1-1.684-.209-2.524-.315" fill="#f2b76e"/>
          <path id="패스_1096" data-name="패스 1096" d="M2240.463,1527.95a63.345,63.345,0,0,1,15.643-26.485c4.587-4.587,9.957-8.391,15.064-12.433a7.641,7.641,0,0,1,3.574-1.41,3.01,3.01,0,0,1,2.448.973,2.492,2.492,0,0,1-.5,2.37,34.842,34.842,0,0,1-6.359,4.423c-7.686,3.765-14.4,8.758-19.453,15.691-3.356,4.611-6.15,9.637-9.174,14.489-.472.757-.83,1.586-1.241,2.382" fill="#e25648"/>
          <path id="패스_1097" data-name="패스 1097" d="M2128.134,1511.679c-7.413.054-13.912,3.184-20.511,5.993-1.874.8-3.752,1.614-5.691,2.221-1.8.565-3.626.64-4.489-1.612a3.621,3.621,0,0,1,2.2-4.6,40.847,40.847,0,0,1,20.7-3.707c2.578.209,5.132.719,7.7,1.091.028.205.057.41.086.616" fill="#f2b76e"/>
          <path id="패스_1098" data-name="패스 1098" d="M2135.337,1555.283c-6.652,4.137-10.816,10.563-15.393,16.608a49.747,49.747,0,0,1-3.618,4.309c-1.11,1.166-2.767,1.766-3.882.5-.862-.98-.956-2.673-1.281-4.075-.07-.3.289-.746.522-1.073a41.112,41.112,0,0,1,23.651-16.263" fill="#f2b76e"/>
          <path id="패스_1099" data-name="패스 1099" d="M2220.513,1536.548c-5.74,3.754-9.3,9.411-13.314,14.647a11.206,11.206,0,0,1-2.564,2.922,4.291,4.291,0,0,1-3.43.549,2.531,2.531,0,0,1-.868-3.819,26.727,26.727,0,0,1,2.963-3.882,33.84,33.84,0,0,1,17.212-10.417" fill="#e25648"/>
          <path id="패스_1100" data-name="패스 1100" d="M2247.793,1546.463a37.186,37.186,0,0,1,14.211,19.1c.656,2,.688,3.872-1.528,4.736-2.332.909-3.151-.937-3.813-2.679-.638-1.678-1.2-3.385-1.783-5.084-.928-2.7-1.674-5.486-2.814-8.094-1.13-2.584-2.652-5-4.274-7.983" fill="#f2b76e"/>
          <path id="패스_1101" data-name="패스 1101" d="M2228.1,1547.926c-.861,4.461-1.767,8.186-2.263,11.969a32.282,32.282,0,0,0,1.64,14.766,16.226,16.226,0,0,1,.817,4.3c.035.642-.633,1.32-.982,1.982-.608-.474-1.588-.839-1.757-1.438a42.676,42.676,0,0,1-1.4-6.708,47.723,47.723,0,0,1,3.941-24.873" fill="#f2b76e"/>
          <path id="패스_1102" data-name="패스 1102" d="M2237.885,1543.218c4.414,9.538,5.984,19.161,4.022,29.242-.171.878-1.327,1.562-2.025,2.337a9.676,9.676,0,0,1-1.034-2.769,10.944,10.944,0,0,1,.6-3.372,36.493,36.493,0,0,0-.737-21.332c-.377-1.167-.738-2.34-1.1-3.514-.017-.056.062-.143.272-.591" fill="#e25648"/>
          <path id="패스_1103" data-name="패스 1103" d="M2223.16,1539.961c-1.819,3.444-4.15,6.72-5.325,10.374-1.41,4.383-1.857,9.082-2.672,13.656a29.1,29.1,0,0,1-.434,3.639c-.223.7-1.1,1.188-1.685,1.772-.437-.717-.914-1.413-1.291-2.158a1.925,1.925,0,0,1-.02-.973,45.473,45.473,0,0,1,11.427-26.309" fill="#e25648"/>
          <path id="패스_1104" data-name="패스 1104" d="M2204.83,1561.864a24.363,24.363,0,0,0-1.74,3.072c-2.575,6.524-5.053,13.087-7.65,19.6a8.734,8.734,0,0,1-1.753,2.079c-.2-.908-.77-1.932-.536-2.708a65.19,65.19,0,0,1,9.689-20.262c.512-.693,1.072-1.347,1.611-2.019l.38.234" fill="#f2b76e"/>
        </g>
      </g>
    </g>
  </g>
</svg>
