<svg xmlns="http://www.w3.org/2000/svg" xmlns:xlink="http://www.w3.org/1999/xlink" width="345.325" height="313.252" viewBox="0 0 345.325 313.252">
  <defs>
    <clipPath id="clip-path">
      <rect id="사각형_696" data-name="사각형 696" width="345.325" height="313.252" transform="translate(2942.606 1285.927)" fill="none"/>
    </clipPath>
  </defs>
  <g id="flame3" transform="translate(-2942.606 -1285.927)">
    <g id="그룹_604" data-name="그룹 604">
      <g id="그룹_603" data-name="그룹 603" clip-path="url(#clip-path)">
        <g id="그룹_969" data-name="그룹 969">
          <path id="패스_1105" data-name="패스 1105" d="M3287.932,1475.87c-1.533.58-3.042,1.573-4.6,1.664-5.32.312-10.71.841-15.979.321-14.225-1.4-28.4-3.3-42.6-5a1.977,1.977,0,0,1-1.274-.638c3.9-.242,7.8-.531,11.711-.718,14.14-.683,28.285-1.394,42.408.234a46.2,46.2,0,0,1,7.059,1.466,16.07,16.07,0,0,1,3.223,1.734l.049.941" fill="#fbe7c4"/>
          <path id="패스_1106" data-name="패스 1106" d="M3244.135,1394.313c2.458-1.575,4.827-3.32,7.4-4.685,5.386-2.862,10.819-5.65,16.36-8.186a13.749,13.749,0,0,1,5.731-.847c1.777.022,2.472,1.48,1.308,2.82a12.009,12.009,0,0,1-4.546,3.568c-6.439,2.311-12.988,4.323-19.529,6.331-2.124.652-4.356.948-6.539,1.405l-.18-.408" fill="#fbe7c4"/>
          <path id="패스_1107" data-name="패스 1107" d="M3077.824,1540.554c-3.146,5.742-6.077,11.618-9.487,17.2q-8.75,14.317-18.048,28.292c-1.811,2.715-4.484,4.865-6.87,7.158-.5.487-1.482.476-2.241.694-.147-.848-.632-1.822-.379-2.526.888-2.478,1.65-5.137,3.138-7.242q10.4-14.715,21.221-29.132c3.844-5.093,8.149-9.836,12.246-14.737l.419.3" fill="#fbe7c4"/>
          <path id="패스_1108" data-name="패스 1108" d="M3087.568,1401.127c-.675-.782-1.356-1.558-2.026-2.345-9.9-11.645-19.739-23.346-28.064-36.221a94.43,94.43,0,0,1-5.4-9.96,21.325,21.325,0,0,1-1.11-4.48l.649-.661c1.123.533,2.518.8,3.322,1.645,2.65,2.782,5.52,5.5,7.529,8.727,7.549,12.139,14.807,24.464,22.132,36.744,1.219,2.043,2.234,4.207,3.343,6.314l-.368.236" fill="#fbe7c4"/>
          <path id="패스_1109" data-name="패스 1109" d="M3030.274,1453.721c-10.825.393-21.652,1.085-32.478,1.084-8.415,0-16.836-.767-25.238-1.41-2.392-.184-4.906-.732-6.679-2.844,1.16-2.081,3.14-2.372,4.943-2.476,4.731-.271,9.524-.77,14.207-.3,14.61,1.478,29.179,3.362,43.762,5.094.5.06,1,.185,1.5.278,0,.191-.008.382-.012.572" fill="#fbe7c4"/>
          <path id="패스_1110" data-name="패스 1110" d="M3014.4,1371.939c1.466.4,3.093.511,4.373,1.243,4.182,2.391,8.522,4.641,12.293,7.6,13.118,10.3,26.022,20.879,39.007,31.35l-.46.682a3.416,3.416,0,0,1-.879-.269c-14.027-9.014-28.114-17.934-42.018-27.136-3.745-2.477-6.992-5.745-10.333-8.8a20.971,20.971,0,0,1-2.636-3.721l.653-.954" fill="#fbe7c4"/>
          <path id="패스_1111" data-name="패스 1111" d="M3130.284,1529.877c1.22,3.983,2.352,7.577,3.423,11.19,4.457,15.026,8.924,30.053,11.353,45.586a66.845,66.845,0,0,1,.631,8.144,17.42,17.42,0,0,1-.573,3.462l-.808.3c-.8-1.062-1.949-2.01-2.336-3.207-1.7-5.245-3.726-10.467-4.619-15.867-2.679-16.209-4.884-32.5-7.265-48.755a4.233,4.233,0,0,1,.2-.859" fill="#fbe7c4"/>
          <path id="패스_1112" data-name="패스 1112" d="M3173.712,1488.022c10.69,6.749,21.515,13.293,32.021,20.32,6.753,4.517,13.107,9.655,19.487,14.711,1.795,1.421,3.048,3.533,4.55,5.328l-.612.976c-1.384-.289-2.922-.284-4.125-.922a100.631,100.631,0,0,1-10.315-6.054c-14.642-10.183-27.984-21.992-41.351-33.761l.345-.6" fill="#fbe7c4"/>
          <path id="패스_1113" data-name="패스 1113" d="M3248.775,1411.772c-1.367,1.046-2.594,2.437-4.129,3.072-5.142,2.128-10.27,4.467-15.625,5.858-15.3,3.972-30.711,7.516-46.078,11.22-.115.027-.256-.063-.735-.194,4.857-1.992,9.428-3.918,14.038-5.743,14.01-5.553,28-11.185,42.732-14.579a46.081,46.081,0,0,1,6.705-.866,11.845,11.845,0,0,1,2.762.422l.332.811" fill="#fbe7c4"/>
          <path id="패스_1114" data-name="패스 1114" d="M3112.227,1394.005c-.484-3.254-1.12-6.5-1.424-9.768-1.091-11.7-2.144-23.394-3.029-35.106a36.749,36.749,0,0,1,.6-7.918,18.948,18.948,0,0,1,1.412-3.846l.922-.052c.661,1.284,1.64,2.5,1.92,3.865a64.585,64.585,0,0,1,1.385,9.66c.733,14.406-.233,28.764-1.79,43.164" fill="#fbe7c4"/>
          <path id="패스_1115" data-name="패스 1115" d="M3175.7,1349.352c5.5-14.15,11.129-28.2,19.263-41.037a46.922,46.922,0,0,1,5.026-6.1c.429-.476,1.325-.523,2-.768.239.754.822,1.6.655,2.25a40.86,40.86,0,0,1-2.37,7.308c-5.3,11.126-12.378,21.144-19.416,31.183-1.69,2.409-3.441,4.775-5.163,7.161" fill="#fbe7c4"/>
          <path id="패스_1116" data-name="패스 1116" d="M3016.843,1502.82c-4.293,2.73-8.489,5.63-12.9,8.152-8.692,4.968-17.478,9.77-26.286,14.526a24.848,24.848,0,0,1-5.334,1.781,15.078,15.078,0,0,1-3.106.033c1.128-1.389,1.726-2.557,2.673-3.208a63.37,63.37,0,0,1,8.98-5.634c11.608-5.381,23.33-10.511,35.014-15.73a5.762,5.762,0,0,1,.806-.236l.154.318" fill="#fbe7c4"/>
          <path id="패스_1117" data-name="패스 1117" d="M3100.173,1340.949c-.707-2.212-1.441-4.415-2.117-6.635-3.746-12.316-7.632-24.6-9.426-37.4a54.948,54.948,0,0,1-.049-7.547l.941-.352c.764,1.184,1.872,2.271,2.23,3.567,1.631,5.9,3.413,11.8,4.464,17.813,1.706,9.77,2.886,19.634,4.28,29.458a7.567,7.567,0,0,1,.006,1.031l-.329.068" fill="#fbe7c4"/>
          <path id="패스_1118" data-name="패스 1118" d="M3019.973,1404.851c-14.723-2.908-29.444-5.708-43.539-10.98a38.957,38.957,0,0,1-5.1-2.417,13.1,13.1,0,0,1-2.125-1.828l.17-.694c1.279-.1,2.642-.527,3.826-.233,6.2,1.543,12.477,2.905,18.491,5.016,9.163,3.215,18.131,6.988,27.18,10.535a9.524,9.524,0,0,1,1.1.6" fill="#fbe7c4"/>
          <path id="패스_1119" data-name="패스 1119" d="M3068.233,1434.639c-9.729-2.317-19.5-4.477-29.169-7.011-5.375-1.409-10.625-3.34-15.855-5.248a31.191,31.191,0,0,1-5.038-2.963c.1-.4.2-.8.306-1.2,1.563,0,3.221-.34,4.678.057,7.181,1.959,14.4,3.834,21.43,6.27,7.678,2.662,15.156,5.906,22.72,8.9.407.161.79.381,1.186.575l-.258.613" fill="#fbe7c4"/>
          <path id="패스_1120" data-name="패스 1120" d="M3219.7,1481.471a19.71,19.71,0,0,1-4.675-.055c-5.686-1.422-11.432-2.737-16.945-4.7-9.152-3.252-18.143-6.971-27.2-10.5a1.763,1.763,0,0,1-1.071-.974c3.691.779,7.419,1.424,11.071,2.363,9.774,2.513,19.537,5.07,29.254,7.792a46.285,46.285,0,0,1,7.455,3.224,12.915,12.915,0,0,1,2.325,1.881l-.216.963" fill="#fbe7c4"/>
          <path id="패스_1121" data-name="패스 1121" d="M3189.155,1384.085c10.089-10.534,20.2-21.061,31.82-29.946a47.416,47.416,0,0,1,5.315-3.436,21.133,21.133,0,0,1,3.586-1.153,16.4,16.4,0,0,1-1.329,3.185,33.842,33.842,0,0,1-3.7,4.276c-10.924,10.291-23.3,18.669-35.688,27.075" fill="#fbe7c4"/>
          <path id="패스_1122" data-name="패스 1122" d="M3149.11,1409.462c3.287-5.883,6.052-11.33,9.275-16.485,5.083-8.133,10.409-16.116,15.791-24.052,1.114-1.643,2.929-2.8,4.42-4.186l.886.551a15.732,15.732,0,0,1-.841,3.738,55.591,55.591,0,0,1-4.762,8.487c-7.8,10.494-15.783,20.844-23.7,31.241a6.937,6.937,0,0,1-1.066.707" fill="#fbe7c4"/>
          <path id="패스_1123" data-name="패스 1123" d="M3118.149,1461.735c-4.35,7.037-8.576,14.155-13.127,21.06-1.364,2.069-3.571,3.612-5.526,5.229a2.366,2.366,0,0,1-2.249.233,2.674,2.674,0,0,1-.744-2.35,25.481,25.481,0,0,1,2.863-6.07c5.057-7.127,11.525-12.906,17.993-18.669l.79.568" fill="#fbe7c4"/>
          <path id="패스_1124" data-name="패스 1124" d="M3100.312,1436.112c-7.832-2.274-15.71-4.4-23.465-6.911-2.425-.785-4.581-2.519-6.718-4.024a2.568,2.568,0,0,1-.793-2.322,2.689,2.689,0,0,1,2.155-1.215,18.451,18.451,0,0,1,5.3.8c8.635,2.912,16.171,7.91,23.778,12.759q-.129.458-.259.914" fill="#fbe7c4"/>
          <path id="패스_1125" data-name="패스 1125" d="M3089.261,1468.281c-6.054,7.788-11.9,15.748-20.248,21.286a9.051,9.051,0,0,1-3.1,1.268c-1.98.411-2.951-.677-2.226-2.6a11,11,0,0,1,2.238-3.623c6.668-7.02,15-11.67,23.337-16.335" fill="#fbe7c4"/>
          <path id="패스_1126" data-name="패스 1126" d="M3124.8,1418.629c.022-8.972.124-17.931,2.477-26.643a18.656,18.656,0,0,1,2.414-5.329c1.189-1.8,2.9-1.517,3.426.574a14.244,14.244,0,0,1,.316,5.381c-1.33,9.16-4.9,17.6-8.634,26.017" fill="#fbe7c4"/>
          <path id="패스_1127" data-name="패스 1127" d="M3072.023,1450.4l7.385,3.037c-3.708,1-5.121.506-7.385-3.037" fill="#fbe7c4"/>
          <path id="패스_1128" data-name="패스 1128" d="M3138.386,1497.961c2.228,7.732,5.975,20.955,5.965,20.966s6.669,19.182,9.223,25.4c.574,1.4,1.9,2.489,2.876,3.72l.949-.506c-.041-8.278-18.813-49.648-19.013-49.575" fill="#fbe7c4"/>
          <path id="패스_1129" data-name="패스 1129" d="M3101.5,1507.145c-3.6,16.684-7.422,33.216-13.662,49.034a81.547,81.547,0,0,1-5.27,10.264c-.471.827-1.719,1.2-2.61,1.788-.328-1.042-1.026-2.127-.914-3.12a46.731,46.731,0,0,1,1.493-8.014c4.213-14.286,10.514-27.726,16.762-41.179,1.366-2.94,2.8-5.849,4.2-8.772" fill="#4da88d"/>
          <path id="패스_1130" data-name="패스 1130" d="M3047.913,1374.772c-7.969-9.677-16.1-19.224-23.841-29.079-4-5.092-7.407-10.672-10.9-16.151a27.207,27.207,0,0,1-2.385-5.854c-.191-.553-.062-1.691.258-1.844a2.383,2.383,0,0,1,2.046.137,19.3,19.3,0,0,1,4.143,3.458,141.008,141.008,0,0,1,9.7,12.823c7.464,11.812,14.616,23.822,21.892,35.752l-.918.759" fill="#4da88d"/>
          <path id="패스_1131" data-name="패스 1131" d="M3141.7,1394.418c3.662-16.5,7.5-32.946,13.636-48.718,1.339-3.438,3.181-6.682,4.861-9.979a6.971,6.971,0,0,1,1.576-1.914c1.289-1.159,2.215-.872,2.432.882a10.334,10.334,0,0,1-.159,4.276c-2.632,8.2-5.017,16.521-8.256,24.484-4.157,10.227-9.04,20.157-13.617,30.214a6.531,6.531,0,0,1-.473.754" fill="#4da88d"/>
          <path id="패스_1132" data-name="패스 1132" d="M3181.322,1453.422c18.912-1.265,37.767-3.045,56.627-.382a31.4,31.4,0,0,1,6.055,1.732,2.41,2.41,0,0,1,1.328,1.566c.065.351-.782,1.151-1.335,1.3a32.138,32.138,0,0,1-6.162,1.25c-11.117.658-22.136-.659-33.138-1.992-7.181-.869-14.33-2-21.491-3.028-.637-.091-1.257-.294-1.885-.444" fill="#4da88d"/>
          <path id="패스_1133" data-name="패스 1133" d="M3235.986,1308.3c-.424,1.462-.562,3.1-1.324,4.355-2.47,4.066-4.788,8.32-7.848,11.914-10.833,12.722-21.95,25.2-32.964,37.766-.17.193-.4.333-.993.179,6.551-9.783,12.932-19.687,19.712-29.3,4.659-6.608,9.808-12.872,14.871-19.18a37.67,37.67,0,0,1,5.09-4.82,14.1,14.1,0,0,1,2.653-1.45l.8.541" fill="#4da88d"/>
          <path id="패스_1134" data-name="패스 1134" d="M3017,1390.425c-16.887-9.8-33.322-19.031-48.335-30.545a70.965,70.965,0,0,1-6.7-6.073,15.774,15.774,0,0,1-1.938-3.083l.455-.722a18.238,18.238,0,0,1,3.964.849,58.649,58.649,0,0,1,7.586,4c15.817,10.227,30.129,22.422,44.41,34.654a6.713,6.713,0,0,1,.559.92" fill="#4da88d"/>
          <path id="패스_1135" data-name="패스 1135" d="M3133.843,1302.68c.323,1.995,1.082,4.031.893,5.977a202.728,202.728,0,0,1-2.654,21.168c-2.715,13.278-5.99,26.439-9.041,39.645a2.069,2.069,0,0,1-.849,1.34c.332-4.672.5-9.365,1.028-14.014,1.572-13.771,3.192-27.535,5.02-41.273a59.153,59.153,0,0,1,2.708-9.828,16,16,0,0,1,1.757-3.06l1.14.044" fill="#4da88d"/>
          <path id="패스_1136" data-name="패스 1136" d="M2996.64,1542.353a14.744,14.744,0,0,1,1.873-3.149,60.831,60.831,0,0,1,6.541-5.915c14.916-11.154,31.146-20.168,47.362-29.192.109-.059.281-.007.675-.007a3.608,3.608,0,0,1-.466.669c-13.717,11.388-27.432,22.787-42.453,32.439a89.324,89.324,0,0,1-8.934,4.854,20.308,20.308,0,0,1-4.006,1.06l-.592-.759" fill="#4da88d"/>
          <path id="패스_1137" data-name="패스 1137" d="M3060.75,1470.057c-10.8,4.2-21.508,8.688-32.44,12.519-8.8,3.085-17.837,5.485-26.837,7.942-2.032.554-4.342.082-6.523.082l-.281-.757a14.109,14.109,0,0,1,2.677-2.476,60.131,60.131,0,0,1,7.976-3.722c18-6.438,36.68-10.2,55.3-14.2.044.205.089.412.132.618" fill="#4da88d"/>
          <path id="패스_1138" data-name="패스 1138" d="M3247.461,1375.208c-.774,1.013-1.359,2.3-2.356,2.992a103.861,103.861,0,0,1-10.487,6.663c-15.461,8.116-31.7,14.426-47.964,20.684a3.422,3.422,0,0,1-.8.065c.2-.258.289-.45.435-.535,14.8-8.46,29.55-17.018,44.453-25.294,3.72-2.065,7.905-3.311,11.94-4.753a20.031,20.031,0,0,1,4.312-.57l.466.748" fill="#4da88d"/>
          <path id="패스_1139" data-name="패스 1139" d="M3018.894,1433.96a15.858,15.858,0,0,1-1.74.165c-17.025-.229-34.05-.372-51.07-.785-3.8-.094-7.6-1.051-11.364-1.8a22.319,22.319,0,0,1-4.061-1.661c-.019-.3-.039-.593-.059-.89,1.154-.487,2.291-1.34,3.468-1.4,5.1-.264,10.275-.83,15.325-.316,16.549,1.691,33.056,3.8,49.578,5.755l-.078.931" fill="#4da88d"/>
          <path id="패스_1140" data-name="패스 1140" d="M3110.205,1533.685c-.429,12.719-.628,25.451-1.372,38.15-.47,8-1.581,15.982-2.749,23.92-.57,3.876-.01,3.539-4.779,3.282a17.8,17.8,0,0,1-.281-3.224c.911-10.183,1.557-20.406,2.929-30.527,1.364-10.055,3.473-20.007,5.268-30a15.312,15.312,0,0,1,.493-1.675l.491.077" fill="#4da88d"/>
          <path id="패스_1141" data-name="패스 1141" d="M3227.987,1433c11.464-3.242,22.9-6.579,34.892-6.8a28.1,28.1,0,0,1,6.431.894,2.441,2.441,0,0,1,1.629,1.579,2.529,2.529,0,0,1-1.255,1.932,19.6,19.6,0,0,1-5.037,1.866c-12.17,2.221-24.408,1.3-36.66.531" fill="#4da88d"/>
          <path id="패스_1142" data-name="패스 1142" d="M3189.465,1521.762c10.507,10.957,21.17,21.787,29.71,34.448a64.851,64.851,0,0,1,3.477,6.65l-.743.724a10.207,10.207,0,0,1-2.6-1.235,52.179,52.179,0,0,1-5.309-5.237c-9.278-10.991-16.951-23.125-24.533-35.35" fill="#4da88d"/>
          <path id="패스_1143" data-name="패스 1143" d="M3167.41,1547.542c6.911,13.367,13.8,26.676,18.4,41.007a41.141,41.141,0,0,1,1.268,5.758,11.8,11.8,0,0,1-.127,2.589l-.69.357a17.326,17.326,0,0,1-2.74-3.275,105.063,105.063,0,0,1-5.527-12.424c-3.646-10.911-6.952-21.938-10.386-32.92a8.431,8.431,0,0,1-.2-1.091" fill="#4da88d"/>
          <path id="패스_1144" data-name="패스 1144" d="M3093.984,1492.76q-5.368,9.142-10.74,18.285c-2.477,4.2-4.807,8.506-7.522,12.548-2.52,3.752-5.41,7.26-8.255,10.778a14.962,14.962,0,0,1-2.911,2.2l-.593-.391a11.041,11.041,0,0,1,.374-2.722,38.553,38.553,0,0,1,2.614-5.521c7.665-12.748,17.168-24.11,26.481-35.613l.553.431" fill="#4da88d"/>
          <path id="패스_1145" data-name="패스 1145" d="M3055.717,1299.075c.992,1.229,2.3,2.314,2.919,3.708,2.342,5.241,4.772,10.477,6.6,15.909,3.319,9.884,6.23,19.909,8.859,30.1a2.3,2.3,0,0,1-.439-.507c-5.553-12.507-11.219-24.966-16.552-37.568-1.327-3.134-1.588-6.73-2.3-10.122a2.935,2.935,0,0,1,.214-1.08l.7-.438" fill="#4da88d"/>
          <path id="패스_1146" data-name="패스 1146" d="M3264.426,1516.042c-1.815,0-3.753.422-5.425-.07-8.721-2.565-17.439-5.174-26.032-8.137a161.356,161.356,0,0,1-18.69-7.979c5.031,1.086,10.116,1.968,15.082,3.3q14.587,3.912,29.051,8.29c2.255.682,4.255,2.228,6.371,3.378l-.357,1.22" fill="#4da88d"/>
          <path id="패스_1147" data-name="패스 1147" d="M2994.982,1476.545c-5.686.871-11.352,1.934-17.063,2.573-8.81.983-17.648,1.725-26.484,2.45a26.852,26.852,0,0,1-5.619-.367,18.976,18.976,0,0,1-3.088-.931l-.121-.858c1.446-.6,2.849-1.561,4.344-1.744,5.813-.708,11.643-1.491,17.484-1.648,9.775-.266,19.56-.075,29.338-.066a9.368,9.368,0,0,1,1.2.151c0,.147,0,.294.01.441" fill="#4da88d"/>
          <path id="패스_1148" data-name="패스 1148" d="M3047.193,1541.356q-2.879,4.286-5.755,8.57c-6.575,9.817-13.23,19.578-21.353,28.195a61.452,61.452,0,0,1-5.523,4.668l-.969-.657a15.942,15.942,0,0,1,1.243-3.783,69.77,69.77,0,0,1,6.215-8.925c7.184-8.179,14.586-16.164,21.907-24.22,1.268-1.4,2.557-2.773,3.836-4.158l.4.312" fill="#4da88d"/>
          <path id="패스_1149" data-name="패스 1149" d="M3104.572,1403.253c-6.914-14.5-14.292-28.714-18.143-44.36a32.392,32.392,0,0,1-.453-5.031l.83-.4a14.232,14.232,0,0,1,2.512,2.822,70.169,70.169,0,0,1,4.516,10.148c3.725,12.008,7.181,24.1,10.731,36.163a2.446,2.446,0,0,1,.008.657" fill="#4da88d"/>
          <path id="패스_1150" data-name="패스 1150" d="M3143.8,1456.573c1.973,1.175,4.043,2.217,5.9,3.554,5.313,3.821,10.6,7.689,15.765,11.707a13.3,13.3,0,0,1,3.159,4.082c.43.777.567,2.353.1,2.832a3.168,3.168,0,0,1-2.865.282,17.24,17.24,0,0,1-5-2.974q-5.451-5.088-10.507-10.6c-2.463-2.675-4.63-5.628-6.929-8.454l.383-.433" fill="#4da88d"/>
          <path id="패스_1151" data-name="패스 1151" d="M3146.843,1433.324c6.06-5.739,12.026-11.582,18.238-17.148,1.79-1.6,4.249-2.5,6.492-3.509a2.362,2.362,0,0,1,2.23.407,2.7,2.7,0,0,1,.1,2.465,23.155,23.155,0,0,1-3.994,4.831c-6.767,5.747-14.62,9.724-22.445,13.729l-.624-.774" fill="#4da88d"/>
          <path id="패스_1152" data-name="패스 1152" d="M3109.873,1433.23c-6.647-5.381-12.959-11.024-17.942-17.94a24.756,24.756,0,0,1-3.26-6.418c-.731-2.139.793-3.434,2.725-2.3a16.275,16.275,0,0,1,5.239,4.517c3.764,5.566,7.2,11.36,10.691,17.109.972,1.6,1.705,3.347,2.548,5.027" fill="#4da88d"/>
          <path id="패스_1153" data-name="패스 1153" d="M3127.848,1479.695c3.077,8.98,6.39,17.9,6.987,27.527a12.807,12.807,0,0,1-.5,4.252c-.593,2.054-2.189,2.358-3.464.617a9.878,9.878,0,0,1-1.87-4.064,137.75,137.75,0,0,1-1.667-13.718c-.279-4.829-.062-9.684-.062-14.529l.573-.085" fill="#4da88d"/>
          <path id="패스_1154" data-name="패스 1154" d="M3064.064,1447.583h0c-.724-.215-1.446-.409-2.174-.572a84.976,84.976,0,0,0-11.508-1.891,1.922,1.922,0,0,0-.484.023,2.62,2.62,0,0,0-.859,4.783,2.179,2.179,0,0,0,.45.2,99.83,99.83,0,0,0,10.765,2.543h.009c11.418,2.872,19.146.762,19.146.762-4.323-2.819-15.343-5.856-15.343-5.856" fill="#4da88d"/>
          <path id="패스_1155" data-name="패스 1155" d="M3159.828,1286.808s-1.842-1.982-2.713,0c-.841,1.911-5.746,6.65-11.076,29.952l-.015-.007-.58,2.67h0l-6.126,28.261a2.1,2.1,0,0,0,1.123-1.2c3.293-7.93,6.623-15.845,9.857-23.8l.046-.1s7.767-18.712,8.386-24.539h0c.99-3.658,1.839-7.34,1.1-11.239" fill="#fbe7c4"/>
          <path id="패스_1156" data-name="패스 1156" d="M3192.03,1551.168a73.566,73.566,0,0,0-4.369-9.435A222.447,222.447,0,0,0,3169.3,1516.4h0l-.048-.057q-3.057-3.756-6.157-7.478a2.114,2.114,0,0,0-.35-.319l-.735-.878.009-.013-6.312-7.518c.252.752.529,1.482.825,2.2h0l.012.021c.724,1.748,5.439,10.444,6.314,12.051l.018.035h0c1.248,2.293,2.515,4.573,3.912,6.769q8.708,13.675,17.753,27.131a23.548,23.548,0,0,0,4.87,4.682c.584.475,1.65.354,2.5.5.059-.8.4-1.712.127-2.363" fill="#fbe7c4"/>
          <path id="패스_1157" data-name="패스 1157" d="M3279.149,1500.591a4.1,4.1,0,1,1-4.1-4.13,4.1,4.1,0,0,1,4.1,4.13" fill="#f2b76e"/>
          <path id="패스_1158" data-name="패스 1158" d="M3266.652,1454.029a2.631,2.631,0,0,1-3.72.016l-.017-.016a2.672,2.672,0,0,1,0-3.761,2.63,2.63,0,0,1,3.72-.017l.017.017a2.673,2.673,0,0,1,0,3.761" fill="#f2b76e"/>
          <path id="패스_1159" data-name="패스 1159" d="M3141.185,1421.6a2.628,2.628,0,0,1-3.717.019l-.018-.019a2.671,2.671,0,0,1,0-3.761,2.63,2.63,0,0,1,3.719-.016l.016.016a2.671,2.671,0,0,1,0,3.761" fill="#f2b76e"/>
          <path id="패스_1160" data-name="패스 1160" d="M3052.828,1489.9a2.629,2.629,0,0,1-3.717.018l-.018-.018a2.671,2.671,0,0,1,0-3.761,2.629,2.629,0,0,1,3.717-.018l.018.018a2.671,2.671,0,0,1,0,3.761" fill="#f2b76e"/>
          <path id="패스_1161" data-name="패스 1161" d="M3035.37,1441.808a2.629,2.629,0,0,1-3.718.019l-.018-.019a2.668,2.668,0,0,1,0-3.76,2.627,2.627,0,0,1,3.717-.018l.019.018a2.672,2.672,0,0,1,0,3.76" fill="#f2b76e"/>
          <path id="패스_1162" data-name="패스 1162" d="M3075.961,1364.457a2.63,2.63,0,0,1-3.718.018l-.018-.018a2.671,2.671,0,0,1,0-3.762,2.63,2.63,0,0,1,3.719-.016l.017.016a2.675,2.675,0,0,1,0,3.762" fill="#f2b76e"/>
          <path id="패스_1163" data-name="패스 1163" d="M3178.709,1315.12a2.631,2.631,0,0,1-3.72.016l-.016-.016a2.671,2.671,0,0,1,0-3.761,2.629,2.629,0,0,1,3.719-.017l.017.017a2.673,2.673,0,0,1,0,3.761" fill="#f2b76e"/>
          <path id="패스_1164" data-name="패스 1164" d="M2994.9,1417.852a2.629,2.629,0,0,1-3.717.018l-.018-.018a2.669,2.669,0,0,1,0-3.761,2.627,2.627,0,0,1,3.717-.018l.018.018a2.672,2.672,0,0,1,0,3.761" fill="#f2b76e"/>
          <path id="패스_1165" data-name="패스 1165" d="M3270.944,1415.97a2.642,2.642,0,1,1-2.641-2.659,2.64,2.64,0,0,1,2.641,2.659" fill="#f2b76e"/>
          <path id="패스_1166" data-name="패스 1166" d="M3201.568,1439.93a2.642,2.642,0,1,1-2.642-2.659,2.643,2.643,0,0,1,2.642,2.659" fill="#f2b76e"/>
          <path id="패스_1167" data-name="패스 1167" d="M3182.123,1396.725a2.642,2.642,0,1,1-2.64-2.659,2.641,2.641,0,0,1,2.64,2.659" fill="#f2b76e"/>
          <path id="패스_1168" data-name="패스 1168" d="M3249.461,1338.29a3.33,3.33,0,1,1-3.331-3.352,3.329,3.329,0,0,1,3.331,3.352h0" fill="#f2b76e"/>
          <path id="패스_1169" data-name="패스 1169" d="M3172.163,1362.576a2.355,2.355,0,1,1-2.355-2.369,2.355,2.355,0,0,1,2.355,2.369" fill="#f2b76e"/>
          <path id="패스_1170" data-name="패스 1170" d="M3137.212,1366.817a2.355,2.355,0,1,1-2.355-2.37,2.356,2.356,0,0,1,2.355,2.37" fill="#f2b76e"/>
          <path id="패스_1171" data-name="패스 1171" d="M3137.212,1293.612a2.355,2.355,0,1,1-2.355-2.369,2.355,2.355,0,0,1,2.355,2.369" fill="#f2b76e"/>
          <path id="패스_1172" data-name="패스 1172" d="M3010.7,1313.238a3.544,3.544,0,1,1-3.543-3.566,3.542,3.542,0,0,1,3.543,3.566" fill="#f2b76e"/>
          <path id="패스_1173" data-name="패스 1173" d="M2963.564,1385.467a3.544,3.544,0,1,1-3.544-3.568,3.544,3.544,0,0,1,3.544,3.568" fill="#f2b76e"/>
          <path id="패스_1174" data-name="패스 1174" d="M2988.33,1495.444a3.544,3.544,0,1,1-3.544-3.566,3.545,3.545,0,0,1,3.544,3.566" fill="#f2b76e"/>
          <path id="패스_1175" data-name="패스 1175" d="M2992.051,1556.158a3.544,3.544,0,1,1-3.544-3.566,3.545,3.545,0,0,1,3.544,3.566" fill="#f2b76e"/>
          <path id="패스_1176" data-name="패스 1176" d="M3075.567,1591.667a3.544,3.544,0,1,1-3.544-3.566,3.545,3.545,0,0,1,3.544,3.566" fill="#f2b76e"/>
          <path id="패스_1177" data-name="패스 1177" d="M3121.7,1525.512a3.544,3.544,0,1,1-3.544-3.568,3.544,3.544,0,0,1,3.544,3.568" fill="#f2b76e"/>
          <path id="패스_1178" data-name="패스 1178" d="M3213.058,1582.172a3.544,3.544,0,1,1-3.543-3.568,3.544,3.544,0,0,1,3.543,3.568h0" fill="#f2b76e"/>
          <path id="패스_1179" data-name="패스 1179" d="M3256.551,1547.141a3.544,3.544,0,1,1-3.542-3.566,3.544,3.544,0,0,1,3.542,3.566" fill="#f2b76e"/>
          <path id="패스_1180" data-name="패스 1180" d="M3125.239,1449.486a3.544,3.544,0,1,1-3.542-3.568,3.542,3.542,0,0,1,3.542,3.568" fill="#f2b76e"/>
        </g>
      </g>
    </g>
  </g>
</svg>
