<svg xmlns="http://www.w3.org/2000/svg" width="202.783" height="215.204" viewBox="0 0 202.783 215.204">
  <g id="footer_sns1" transform="translate(96 96)">
    <path id="패스_356" data-name="패스 356" d="M437.049,355.617H433.8v11.594h-4.82V355.617h-2.292v-4.1h2.292v-2.651c0-1.9.9-4.863,4.863-4.863l3.57.015V348H434.82a.98.98,0,0,0-1.022,1.116v2.41h3.672Z" transform="translate(-426.686 -344.008)" fill="#005fab"/>
    <path id="패스_357" data-name="패스 357" d="M437.049,355.617H433.8v11.594h-4.82V355.617h-2.292v-4.1h2.292v-2.651c0-1.9.9-4.863,4.863-4.863l3.57.015V348H434.82a.98.98,0,0,0-1.022,1.116v2.41h3.672Z" transform="translate(-426.686 -344.008)" fill="#005fab"/>
    <path id="패스_358" data-name="패스 358" d="M437.049,355.617H433.8v11.594h-4.82V355.617h-2.292v-4.1h2.292v-2.651c0-1.9.9-4.863,4.863-4.863l3.57.015V348H434.82a.98.98,0,0,0-1.022,1.116v2.41h3.672Z" transform="translate(-426.686 -344.008)" fill="#005fab"/>
    <path id="패스_359" data-name="패스 359" d="M437.049,355.617H433.8v11.594h-4.82V355.617h-2.292v-4.1h2.292v-2.651c0-1.9.9-4.863,4.863-4.863l3.57.015V348H434.82a.98.98,0,0,0-1.022,1.116v2.41h3.672Z" transform="translate(-426.686 -344.008)" fill="#005fab"/>
    <path id="패스_360" data-name="패스 360" d="M437.049,355.617H433.8v11.594h-4.82V355.617h-2.292v-4.1h2.292v-2.651c0-1.9.9-4.863,4.863-4.863l3.57.015V348H434.82a.98.98,0,0,0-1.022,1.116v2.41h3.672Z" transform="translate(-426.686 -344.008)" fill="#fff"/>
  </g>
</svg>
