<svg xmlns="http://www.w3.org/2000/svg" xmlns:xlink="http://www.w3.org/1999/xlink" width="35" height="35" viewBox="0 0 35 35">
  <defs>
    <clipPath id="clip-path">
      <rect id="사각형_778" data-name="사각형 778" width="35" height="35" fill="none"/>
    </clipPath>
    <clipPath id="clip-path-2">
      <rect id="사각형_779" data-name="사각형 779" width="32.245" height="32.981" fill="none"/>
    </clipPath>
  </defs>
  <g id="OCEANA_favicon" transform="translate(0 0)">
    <g id="그룹_890" data-name="그룹 890" transform="translate(0 0)">
      <g id="그룹_889" data-name="그룹 889" clip-path="url(#clip-path)">
        <path id="패스_4025" data-name="패스 4025" d="M17.5,0A17.5,17.5,0,1,1,0,17.5,17.5,17.5,0,0,1,17.5,0" transform="translate(0 0)" fill="#3f1b5b"/>
      </g>
    </g>
    <g id="그룹_892" data-name="그룹 892" transform="translate(1.366 1.011)">
      <g id="그룹_891" data-name="그룹 891" clip-path="url(#clip-path-2)">
        <path id="패스_4026" data-name="패스 4026" d="M24.583,24.177v.14L26.4,17.771h.026l.047-.268-5.494.571-.2.761L19.4,24.006a1.292,1.292,0,0,0-1.025-.431A1.94,1.94,0,0,0,16.521,24.8c-.185.68.351,1.254,1.189,1.255a1.7,1.7,0,0,0,1.852-1.185h-.017l-.01-.019.011-.029v-.016l1.415-5.279,4.732-.61L24.5,23.393a1.289,1.289,0,0,0-1.026-.422A1.941,1.941,0,0,0,21.619,24.2c-.186.68.348,1.185,1.185,1.185a1.845,1.845,0,0,0,1.849-1.252Z" transform="translate(-5.352 -5.288)" fill="#fff"/>
        <path id="패스_4027" data-name="패스 4027" d="M33.611,17.5a16.345,16.345,0,0,1-1.548,6.974.809.809,0,0,1-1.06.386.77.77,0,0,1-.407-1.007l.011-.024a14.817,14.817,0,0,0,1.4-6.328A15.1,15.1,0,0,0,27.7,6.994,13.942,13.942,0,0,0,17.578,2.569,14.361,14.361,0,0,0,7.189,6.987,15.058,15.058,0,0,0,2.966,17.5,14.9,14.9,0,0,0,7.181,28a14.515,14.515,0,0,0,10.4,4.429A14.073,14.073,0,0,0,27.7,28.014c.107-.107.2-.206.29-.3a.815.815,0,0,1,1.13-.056.765.765,0,0,1,.081,1.074l-.024.027c-.1.107-.2.216-.306.323a15.7,15.7,0,0,1-11.287,4.911A16.329,16.329,0,0,1,1.365,17.547c0-.015,0-.03,0-.044A16.582,16.582,0,0,1,6.018,5.926a15.986,15.986,0,0,1,11.56-4.915,15.576,15.576,0,0,1,11.3,4.929A16.618,16.618,0,0,1,33.611,17.5M8.682,13.977A10.446,10.446,0,0,0,8.074,17.5a9.977,9.977,0,0,0,2.82,7.049,8.928,8.928,0,0,0,13.178.013A10.147,10.147,0,0,0,26.9,17.5,10.363,10.363,0,0,0,24.072,10.4a9.025,9.025,0,0,0-12.812-.357c-.122.116-.24.235-.356.357s-.238.25-.348.376a.816.816,0,0,1-1.128.085.764.764,0,0,1-.11-1.072l.023-.027c.13-.147.264-.292.4-.431a10.653,10.653,0,0,1,15.125-.372c.128.123.254.249.376.378a11.917,11.917,0,0,1,3.261,8.17,11.691,11.691,0,0,1-3.269,8.131,10.585,10.585,0,0,1-7.658,3.384,10.788,10.788,0,0,1-7.843-3.389A11.519,11.519,0,0,1,6.474,17.5a11.964,11.964,0,0,1,.7-4.036.8.8,0,0,1,1.018-.479.773.773,0,0,1,.5.97l-.007.021" transform="translate(-1.366 -1.011)" fill="#39a8dc"/>
      </g>
    </g>
  </g>
</svg>
